<?xml version="1.0" encoding="utf-8"?>
<!-- Generator: Adobe Illustrator 25.4.1, SVG Export Plug-In . SVG Version: 6.00 Build 0)  -->
<svg version="1.1" id="Layer_1" xmlns="http://www.w3.org/2000/svg" xmlns:xlink="http://www.w3.org/1999/xlink" x="0px" y="0px"
	 viewBox="0 0 286.7 85.7" style="enable-background:new 0 0 286.7 85.7;" xml:space="preserve">
<style type="text/css">
	.st0{fill:#084D90;}
	.st1{fill:#329FBB;}
	.st2{fill:url(#SVGID_1_);}
	.st3{fill:url(#SVGID_00000023281343779661078210000010834803170404883108_);}
</style>
<g>
	<path class="st0" d="M46,1.4h6.5v22.8c0,4.8,3.1,7.5,7.9,7.5c4.8,0,7.9-2.7,7.9-7.5V1.4h6.5v22.8c0,8-5.8,13.4-14.3,13.4
		c-8.6,0-14.4-5.4-14.4-13.4V1.4z"/>
	<path class="st0" d="M98.9,0.8c8.7,0,13.1,4.8,13.1,4.8l-3.1,4.8c0,0-4.1-3.8-9.7-3.8c-7.5,0-11.9,5.6-11.9,12.2
		c0,6.8,4.6,12.7,12,12.7c6.2,0,10.3-4.5,10.3-4.5l3.4,4.7c0,0-4.9,5.8-14,5.8c-10.9,0-18.4-8.1-18.4-18.5
		C80.7,8.7,88.5,0.8,98.9,0.8z"/>
	<path class="st0" d="M118.9,1.4h6.5v30h15.4v5.5h-21.8V1.4z"/>
</g>
<g>
	<path class="st1" d="M46.1,45.3h12.7c6.4,0,11,3.3,11,9.2c0,3.3-1.6,6.2-4.3,7.6v0.1c3.9,1.2,5.8,4.8,5.8,8.4
		c0,7.1-5.7,10.3-12.3,10.3H46.1V45.3z M58.8,59.8c2.8,0,4.4-2,4.4-4.6c0-2.5-1.5-4.4-4.5-4.4h-6.2v9H58.8z M59.5,75.2
		c3.3,0,5.2-2.2,5.2-5.2c0-3-1.9-5.1-5.2-5.1h-6.9v10.3H59.5z"/>
	<path class="st1" d="M78.2,45.3h6.5v35.5h-6.5V45.3z"/>
	<path class="st1" d="M93.7,45.3h11.5c3.9,0,5.6,0.3,7.2,1c3.6,1.6,5.8,5,5.8,9.7c0,4.3-2.2,8.2-6,9.7v0.1c0,0,0.5,0.5,1.2,1.8
		l7.3,13.3h-7.2l-7.1-13.3h-6.2v13.3h-6.5V45.3z M105.9,61.9c3.5,0,5.6-2.1,5.6-5.6c0-3.4-1.5-5.5-6.5-5.5h-4.9v11.1H105.9z"/>
	<path class="st1" d="M126.6,45.3h6.5v14.5h4.6l8.4-14.5h7l-10.1,16.9v0.1l10.7,18.5h-7.3l-8.7-15.5H133v15.5h-6.5V45.3z"/>
	<path class="st1" d="M158.9,45.3h12.7c6.4,0,11,3.3,11,9.2c0,3.3-1.6,6.2-4.3,7.6v0.1c3.9,1.2,5.8,4.8,5.8,8.4
		c0,7.1-5.7,10.3-12.3,10.3h-12.9V45.3z M171.6,59.8c2.8,0,4.4-2,4.4-4.6c0-2.5-1.5-4.4-4.5-4.4h-6.2v9H171.6z M172.3,75.2
		c3.3,0,5.2-2.2,5.2-5.2c0-3-1.9-5.1-5.2-5.1h-6.9v10.3H172.3z"/>
	<path class="st1" d="M191,45.3h21.3v5.6h-14.8v9.3h12v5.6h-12v9.6h15.6v5.5H191V45.3z"/>
	<path class="st1" d="M235.4,44.7c8.7,0,13.1,4.8,13.1,4.8l-3.1,4.8c0,0-4-3.8-9.7-3.8c-7.5,0-11.9,5.6-11.9,12.2
		c0,6.8,4.6,12.7,12,12.7c6.2,0,10.3-4.5,10.3-4.5l3.4,4.7c0,0-4.9,5.8-14,5.8c-10.9,0-18.4-8.1-18.4-18.5
		C217.1,52.6,224.9,44.7,235.4,44.7z"/>
	<path class="st1" d="M255.4,45.3h6.5v14.5h4.6l8.4-14.5h7l-10.1,16.9v0.1l10.7,18.5h-7.2l-8.7-15.5h-4.6v15.5h-6.5V45.3z"/>
</g>
<linearGradient id="SVGID_1_" gradientUnits="userSpaceOnUse" x1="736.48" y1="936.8509" x2="788.0458" y2="936.8509" gradientTransform="matrix(0 1 -1 0 953.5869 -705.4863)">
	<stop  offset="0.5182" style="stop-color:#329FBB"/>
	<stop  offset="1" style="stop-color:#97C7AA"/>
</linearGradient>
<path class="st2" d="M13.4,45c-4.8,5-5.7,6.3-8.8,10.7c0,0,0,0,0,0.1c-0.2,0.3-0.4,0.7-0.7,1c-2,2.7-3.2,6.1-3.2,9.7
	c0,8.9,7.2,16.1,16.1,16.1s16.1-7.2,16.1-16.1c0-3.6-1.2-7-3.2-9.7c-2.6-3.7-5.8-8-5.8-12.9c0-4.6,3.3-9.4,5.4-12.2
	c0.1-0.2,0.3-0.4,0.4-0.5c0,0,0.1-0.1,0.1-0.1L13.4,45z"/>
<linearGradient id="SVGID_00000121989065986837120920000018184732836594964642_" gradientUnits="userSpaceOnUse" x1="705.5707" y1="937.0585" x2="755.0191" y2="937.0585" gradientTransform="matrix(0 1 -1 0 953.5869 -705.4863)">
	<stop  offset="0" style="stop-color:#56A6D7"/>
	<stop  offset="0.6155" style="stop-color:#0E5293"/>
	<stop  offset="1" style="stop-color:#084D90"/>
</linearGradient>
<path style="fill:url(#SVGID_00000121989065986837120920000018184732836594964642_);" d="M13.2,39.7c5.8-6,17-12,18.9-19.4
	c0.1-0.6,0.3-1.2,0.4-1.8c0.1-0.8,0.2-1.5,0.2-2.3c0-8.9-7.2-16.1-16.1-16.1S0.4,7.3,0.4,16.2c0,3.8,1.3,7.2,3.4,10
	C6,29,9.4,33.9,9.4,38.6c0,4.5-2.1,7.4-4.5,10.9c0,0,0,0,0,0C8.1,45.1,8.4,44.7,13.2,39.7z"/>
<g>
	<path class="st0" d="M161,16.7h2.1l5.3,11.9c0.5,1,1,2.5,1,2.5h0.1c0,0,0.5-1.4,1-2.5l5.3-11.9h2l1.6,20.3h-2l-1.1-14.2
		c-0.1-1.1-0.1-2.8-0.1-2.8h-0.1c0,0-0.6,1.8-1.1,2.8l-4.8,10.4h-1.9l-4.8-10.4c-0.5-1-1.1-2.9-1.1-2.9h-0.1c0,0,0,1.8-0.1,2.9
		L161.4,37h-2L161,16.7z"/>
	<path class="st0" d="M184.7,16.7h6c2.1,0,3,0.2,3.8,0.5c1.9,0.8,3.1,2.8,3.1,5.2c0,2.7-1.6,4.8-3.8,5.5V28c0,0,0.2,0.3,0.5,0.8
		l4.4,8.2h-2.3l-4.6-8.5h-5.1V37h-2V16.7z M191.5,26.7c2.5,0,4-1.6,4-4.1c0-1.7-0.7-2.9-1.8-3.5c-0.6-0.3-1.3-0.5-2.9-0.5h-4.1v8.2
		H191.5z"/>
	<path class="st0" d="M211.6,16.4c4.8,0,7.3,2.6,7.3,2.6l-1.1,1.5c0,0-2.4-2.3-6.2-2.3c-4.8,0-8.2,3.7-8.2,8.5
		c0,4.8,3.4,8.8,8.2,8.8c4.1,0,6.6-2.7,6.6-2.7l1.2,1.4c0,0-2.8,3.1-7.8,3.1c-6,0-10.3-4.7-10.3-10.6
		C201.4,20.8,205.8,16.4,211.6,16.4z"/>
</g>
<g>
	<path class="st0" d="M231.5,16.9h6.5c6,0,10.1,3.7,10.1,10c0,6.4-4.1,10-10.1,10h-6.5V16.9z M237.7,35.2c4.9,0,8.2-2.9,8.2-8.3
		c0-5.3-3.3-8.2-8.2-8.2h-4.3v16.5H237.7z"/>
	<path class="st0" d="M256.7,18.7h-7.2v-1.8h16.4v1.8h-7.2V37h-2V18.7z"/>
	<path class="st0" d="M269,16.9h6.9c3.6,0,6.2,2.3,6.2,6c0,3.7-2.6,6.1-6.2,6.1h-5V37h-2V16.9z M275.6,27.4c2.7,0,4.4-1.6,4.4-4.4
		c0-2.7-1.7-4.3-4.4-4.3h-4.7v8.6H275.6z"/>
</g>
</svg>
